<?xml version="1.0" standalone="no"?>
<!DOCTYPE svg PUBLIC "-//W3C//DTD SVG 20010904//EN"
 "http://www.w3.org/TR/2001/REC-SVG-20010904/DTD/svg10.dtd">
<svg version="1.0" xmlns="http://www.w3.org/2000/svg"
 width="500.000000pt" height="500.000000pt" viewBox="0 0 500.000000 500.000000"
 preserveAspectRatio="xMidYMid meet">

<g transform="translate(0.000000,500.000000) scale(0.100000,-0.100000)"
fill="#000000" stroke="none">
<path d="M2384 4366 c-31 -31 -34 -39 -34 -94 0 -57 -6 -71 -116 -284 -64
-122 -179 -344 -257 -493 -77 -148 -165 -319 -197 -380 -31 -60 -110 -212
-174 -337 -65 -126 -123 -228 -130 -228 -7 0 -20 -8 -29 -17 -47 -53 -17 -123
53 -123 47 0 72 29 69 81 -2 36 45 143 61 137 4 -2 200 -232 434 -511 l426
-509 0 -86 0 -87 -29 30 c-94 99 -683 789 -691 810 -8 21 -16 26 -36 23 -15
-2 -32 -11 -38 -20 -9 -15 -3 -25 35 -60 47 -44 76 -76 493 -556 196 -227 236
-277 230 -295 -3 -12 -6 -24 -6 -27 -1 -38 7 -56 31 -81 40 -40 88 -40 130 0
28 26 32 36 30 78 -1 42 6 62 63 163 60 105 450 809 521 940 112 206 172 307
189 318 29 21 21 73 -15 90 -24 12 -31 11 -53 -2 -13 -9 -24 -26 -24 -38 0
-22 0 -22 -19 -3 -10 11 -162 207 -338 435 -175 228 -349 454 -386 502 l-67
87 2 168 c3 143 5 168 19 171 17 3 713 -937 731 -988 13 -38 51 -50 78 -25 27
24 26 71 -1 87 -11 7 -184 236 -385 509 -298 406 -364 502 -364 528 0 39 -22
85 -52 105 -13 9 -43 16 -71 16 -42 0 -54 -5 -83 -34z m49 -213 c3 -5 8 -213
11 -463 4 -250 8 -502 11 -560 3 -58 7 -244 10 -415 5 -307 10 -534 20 -857 3
-93 3 -168 0 -168 -2 0 -185 217 -406 483 -221 265 -408 489 -416 498 -12 14
0 42 90 215 57 109 148 285 202 389 54 105 161 309 237 455 76 146 157 302
181 347 40 80 50 92 60 76z m486 -931 c204 -265 371 -485 371 -487 0 -3 -161
-296 -357 -651 -289 -522 -359 -642 -364 -623 -3 13 -9 195 -13 404 -3 209 -9
466 -11 570 -7 286 -14 623 -21 980 -5 281 -4 318 9 305 8 -8 181 -232 386
-498z"/>
</g>
</svg>
